<svg width="198" height="114" viewBox="0 0 260 150" fill="none" xmlns="http://www.w3.org/2000/svg">
<defs><clipPath id="f"><rect width="260" height="150" rx="12"/></clipPath>
<style>@keyframes m { from { stroke-dashoffset: 0; } to { stroke-dashoffset: -800; } } .r { animation: m 7s linear infinite; }</style></defs>
<g clip-path="url(#f)">
<rect width="260" height="150" fill="#F6F8FA"/>
<ellipse cx="40" cy="0" rx="160" ry="66" fill="#1F2328" opacity="0.04"/>
<g transform="translate(14,13) scale(0.833)"><path d="m23.6004 9.5927-.0337-.0862L20.3.9814a.851.851 0 0 0-.3362-.405.8748.8748 0 0 0-.9997.0539.8748.8748 0 0 0-.29.4399l-2.2055 6.748H7.5375l-2.2057-6.748a.8573.8573 0 0 0-.29-.4412.8748.8748 0 0 0-.9997-.0537.8585.8585 0 0 0-.3362.4049L.4332 9.5015l-.0325.0862a6.0657 6.0657 0 0 0 2.0119 7.0105l.0113.0087.03.0213 4.976 3.7264 2.462 1.8633 1.4995 1.1321a1.0085 1.0085 0 0 0 1.2197 0l1.4995-1.1321 2.4619-1.8633 5.006-3.7489.0125-.01a6.0682 6.0682 0 0 0 2.0094-7.003z" fill="#FC6D26"/></g>
<text x="38" y="30" font-family="'Segoe UI', Helvetica, Arial, sans-serif" font-size="13.5" font-weight="800" fill="#1F2328">WikiSuite</text>
<text x="38" y="45" font-family="'Segoe UI', Helvetica, Arial, sans-serif" font-size="9.5" fill="#656D76">Open server management suite</text>
<rect x="193" y="17" width="55" height="19" rx="9.5" fill="none" stroke="#1F2328" stroke-opacity="0.7"/>
<text x="220.5" y="30" text-anchor="middle" font-family="'Segoe UI', Helvetica, Arial, sans-serif" font-size="8.5" font-weight="700" fill="#1F2328" letter-spacing="0.6">MERGED</text>
<text x="14" y="76" font-family="'Segoe UI', Helvetica, Arial, sans-serif" font-size="10.5" fill="#59636E">The documented install script now</text><text x="14" y="91" font-family="'Segoe UI', Helvetica, Arial, sans-serif" font-size="10.5" fill="#59636E">works under sh: POSIX root check</text><text x="14" y="106" font-family="'Segoe UI', Helvetica, Arial, sans-serif" font-size="10.5" fill="#1F2328">and a clear FQDN error message.</text>
<text x="14" y="134" font-family="'SFMono-Regular', Consolas, Menlo, monospace" font-size="9.5" fill="#656D76">gitlab.com/wikisuite</text>
</g>
<rect x="1" y="1" width="258" height="148" rx="11" fill="none" stroke="#D1D9E0" stroke-width="1.5"/>
<rect x="1" y="1" width="258" height="148" rx="11" fill="none" stroke="#1F2328" stroke-width="1.5" stroke-opacity="0.85" stroke-dasharray="50 750" class="r"/>
</svg>
